<?xml version="1.0" standalone="no"?>
<!DOCTYPE svg PUBLIC "-//W3C//DTD SVG 20010904//EN"
 "http://www.w3.org/TR/2001/REC-SVG-20010904/DTD/svg10.dtd">
<svg version="1.0" xmlns="http://www.w3.org/2000/svg"
 width="300.000000pt" height="300.000000pt" viewBox="0 0 300.000000 300.000000"
 preserveAspectRatio="xMidYMid meet">
<metadata>
Created by potrace 1.10, written by Peter Selinger 2001-2011
</metadata>
<g transform="translate(0.000000,300.000000) scale(0.100000,-0.100000)"
fill="#000000" stroke="none">
<path d="M1100 2337 c-58 -20 -69 -57 -61 -214 5 -119 8 -135 28 -155 l23 -22
-28 -29 c-25 -26 -27 -33 -24 -110 2 -70 7 -92 35 -147 22 -43 45 -74 74 -95
40 -28 42 -33 42 -82 1 -91 -22 -110 -35 -28 l-6 45 -139 0 c-76 0 -140 -3
-142 -7 -7 -14 22 -166 44 -228 63 -181 208 -330 372 -384 238 -78 452 -29
622 143 80 81 125 163 155 283 19 70 20 112 20 557 l0 481 -198 0 -199 0 1
-455 1 -455 -27 -52 c-30 -56 -57 -81 -124 -114 -56 -27 -146 -23 -214 8 l-45
21 133 1 c119 1 132 3 132 19 0 9 -10 22 -22 27 -33 16 -58 72 -58 135 0 50 3
56 29 72 39 22 97 103 110 153 16 63 22 164 11 185 -5 10 -17 25 -25 34 -13
13 -13 18 4 48 16 27 20 56 22 168 3 143 -3 169 -44 192 -31 16 -419 21 -467
5z m448 -43 c51 -35 31 -39 -223 -39 -254 0 -274 4 -223 39 33 23 413 23 446
0z m496 1 c3 -8 4 -223 3 -478 -3 -509 -2 -495 -71 -636 -87 -180 -286 -301
-491 -301 -69 0 -141 12 -180 29 -164 71 -232 127 -306 252 -44 74 -89 207
-89 264 l0 33 68 4 c105 5 127 -1 157 -46 15 -22 29 -48 31 -59 4 -22 32 -46
55 -47 9 0 32 -15 51 -34 36 -35 116 -66 168 -66 37 0 118 29 162 57 20 14 48
43 63 65 54 82 55 88 55 533 0 228 3 420 6 429 9 23 309 24 318 1z m-474 -182
c0 -94 -2 -109 -21 -129 -19 -21 -23 -21 -66 -8 -56 17 -256 19 -319 3 -39
-10 -47 -9 -64 6 -18 16 -20 31 -20 127 l0 108 245 0 245 0 0 -107z m-100
-174 c28 -6 64 -22 80 -36 119 -99 -157 -194 -375 -129 -60 18 -110 65 -101
94 10 31 42 54 93 68 60 16 235 18 303 3z m-325 -197 c49 -18 133 -32 188 -32
66 0 172 25 215 50 l32 19 -6 -27 c-20 -87 -77 -160 -149 -193 -85 -39 -211
-13 -277 57 -32 34 -67 109 -68 143 0 22 2 23 18 9 9 -8 31 -20 47 -26z m179
-242 c30 0 65 4 78 9 22 8 23 7 23 -49 1 -36 7 -66 18 -83 9 -15 17 -29 17
-32 0 -3 -61 -5 -135 -5 -74 0 -135 2 -135 3 0 2 8 19 17 38 9 18 19 57 21 86
4 47 6 51 23 43 10 -6 42 -10 73 -10z"/>
<path d="M1825 2224 c-33 -36 -32 -74 3 -107 37 -35 63 -34 107 4 48 43 45 71
-15 112 -35 24 -67 21 -95 -9z m90 -26 c24 -22 25 -24 10 -45 -27 -38 -95 -26
-95 16 0 18 29 51 46 51 7 0 25 -10 39 -22z"/>
<path d="M1821 1994 c-20 -25 -21 -39 -21 -279 0 -265 -6 -308 -52 -399 -29
-57 -93 -115 -165 -149 -60 -27 -70 -29 -156 -25 -129 6 -183 33 -298 151 -49
50 -91 88 -94 85 -10 -10 85 -126 138 -169 29 -23 77 -53 107 -68 49 -23 67
-26 165 -26 101 0 114 2 163 28 108 57 180 147 206 257 12 50 16 128 16 331
l0 266 55 2 55 1 0 -294 c0 -161 -5 -317 -10 -347 -26 -138 -118 -260 -243
-323 -194 -97 -408 -50 -554 122 -51 61 -113 169 -113 200 0 6 -5 12 -11 12
-16 0 -3 -64 23 -115 63 -125 202 -244 324 -278 259 -72 507 68 592 336 14 44
17 98 16 354 -1 350 -1 353 -79 353 -35 0 -47 -5 -64 -26z"/>
<path d="M1124 2176 c-12 -31 0 -51 30 -51 36 0 56 26 37 49 -17 20 -60 21
-67 2z"/>
<path d="M1492 2115 c-1 -33 -5 -71 -7 -85 l-6 -25 11 25 c6 13 9 51 7 85 l-3
60 -2 -60z"/>
<path d="M1210 1909 c-50 -10 -84 -37 -75 -61 14 -35 75 -52 185 -53 111 0
166 13 195 45 16 17 16 19 -3 38 -37 37 -190 53 -302 31z m260 -45 c29 -29
-208 -45 -272 -19 -28 11 -21 23 15 28 61 9 246 2 257 -9z"/>
<path d="M1452 1658 c-7 -13 -20 -34 -29 -48 -17 -24 -17 -24 0 -11 20 16 51
70 44 77 -2 2 -9 -6 -15 -18z"/>
<path d="M2194 1982 c-35 -24 -15 -76 27 -70 16 2 25 10 27 26 6 38 -26 64
-54 44z"/>
<path d="M2190 1295 c-26 -31 13 -82 44 -56 21 17 21 57 0 65 -23 9 -30 8 -44
-9z"/>
<path d="M2062 1054 c-27 -19 -30 -74 -4 -96 31 -28 57 -30 85 -7 34 26 36 67
4 97 -27 26 -54 28 -85 6z m57 -33 c17 -11 7 -41 -13 -41 -19 0 -29 17 -22 35
6 17 15 18 35 6z"/>
<path d="M907 944 c-13 -14 -7 -43 12 -53 24 -13 55 8 50 35 -4 19 -48 32 -62
18z"/>
<path d="M1930 865 c-16 -19 -4 -52 22 -61 30 -9 62 29 48 57 -13 22 -52 25
-70 4z"/>
<path d="M1308 563 c17 -2 47 -2 65 0 17 2 3 4 -33 4 -36 0 -50 -2 -32 -4z"/>
</g>
</svg>
